<svg xmlns="http://www.w3.org/2000/svg" xmlns:xlink="http://www.w3.org/1999/xlink" width="338" zoomAndPan="magnify" viewBox="0 0 253.5 356.999992" height="476" preserveAspectRatio="xMidYMid meet" version="1.0"><defs><g/><clipPath id="1da082a34d"><path d="M 59 0.351562 L 194 0.351562 L 194 244 L 59 244 Z M 59 0.351562 " clip-rule="nonzero"/></clipPath></defs><g clip-path="url(#1da082a34d)"><path fill="#302e2e" d="M 193.390625 176.210938 L 193.390625 67.828125 C 193.390625 66.730469 193.363281 65.636719 193.308594 64.542969 C 193.257812 63.445312 193.175781 62.355469 193.070312 61.265625 C 192.960938 60.175781 192.828125 59.085938 192.667969 58.003906 C 192.503906 56.917969 192.316406 55.839844 192.105469 54.765625 C 191.890625 53.691406 191.652344 52.625 191.382812 51.558594 C 191.117188 50.496094 190.828125 49.441406 190.507812 48.394531 C 190.191406 47.34375 189.847656 46.304688 189.476562 45.273438 C 189.109375 44.242188 188.714844 43.21875 188.296875 42.207031 C 187.875 41.195312 187.433594 40.195312 186.964844 39.203125 C 186.496094 38.214844 186.003906 37.234375 185.484375 36.269531 C 184.96875 35.304688 184.429688 34.351562 183.867188 33.410156 C 183.304688 32.472656 182.71875 31.546875 182.109375 30.632812 C 181.5 29.722656 180.871094 28.828125 180.21875 27.949219 C 179.5625 27.066406 178.890625 26.203125 178.195312 25.359375 C 177.5 24.511719 176.785156 23.683594 176.050781 22.871094 C 175.3125 22.058594 174.558594 21.265625 173.785156 20.492188 C 173.007812 19.714844 172.214844 18.960938 171.402344 18.226562 C 170.59375 17.488281 169.761719 16.773438 168.917969 16.078125 C 168.070312 15.382812 167.207031 14.710938 166.324219 14.058594 C 165.445312 13.40625 164.550781 12.773438 163.640625 12.164062 C 162.726562 11.554688 161.804688 10.96875 160.863281 10.40625 C 159.921875 9.84375 158.972656 9.304688 158.003906 8.789062 C 157.039062 8.269531 156.058594 7.777344 155.070312 7.308594 C 154.078125 6.84375 153.078125 6.398438 152.066406 5.980469 C 151.054688 5.558594 150.03125 5.164062 149 4.796875 C 147.96875 4.425781 146.929688 4.082031 145.878906 3.765625 C 144.832031 3.449219 143.777344 3.15625 142.714844 2.890625 C 141.652344 2.625 140.582031 2.382812 139.507812 2.167969 C 138.433594 1.957031 137.355469 1.769531 136.269531 1.609375 C 135.1875 1.445312 134.101562 1.3125 133.007812 1.207031 C 131.917969 1.097656 130.828125 1.019531 129.734375 0.964844 C 128.636719 0.910156 127.542969 0.882812 126.449219 0.882812 C 125.351562 0.882812 124.257812 0.910156 123.164062 0.964844 C 122.070312 1.019531 120.976562 1.097656 119.886719 1.207031 C 118.796875 1.3125 117.710938 1.445312 116.625 1.609375 C 115.542969 1.769531 114.460938 1.957031 113.386719 2.167969 C 112.3125 2.382812 111.246094 2.625 110.183594 2.890625 C 109.121094 3.15625 108.0625 3.449219 107.015625 3.765625 C 105.96875 4.082031 104.925781 4.425781 103.894531 4.796875 C 102.863281 5.164062 101.84375 5.558594 100.828125 5.980469 C 99.816406 6.398438 98.816406 6.84375 97.824219 7.308594 C 96.835938 7.777344 95.855469 8.269531 94.890625 8.789062 C 93.925781 9.304688 92.972656 9.84375 92.03125 10.40625 C 91.09375 10.96875 90.167969 11.554688 89.257812 12.164062 C 88.34375 12.773438 87.449219 13.40625 86.570312 14.058594 C 85.691406 14.710938 84.828125 15.382812 83.980469 16.078125 C 83.132812 16.773438 82.304688 17.488281 81.492188 18.226562 C 80.679688 18.960938 79.886719 19.714844 79.113281 20.492188 C 78.335938 21.265625 77.582031 22.058594 76.847656 22.871094 C 76.109375 23.683594 75.394531 24.511719 74.699219 25.359375 C 74.003906 26.203125 73.332031 27.066406 72.679688 27.949219 C 72.027344 28.828125 71.394531 29.722656 70.785156 30.632812 C 70.179688 31.546875 69.59375 32.472656 69.027344 33.410156 C 68.464844 34.351562 67.925781 35.304688 67.410156 36.269531 C 66.894531 37.234375 66.402344 38.214844 65.933594 39.203125 C 65.464844 40.195312 65.019531 41.195312 64.601562 42.207031 C 64.179688 43.21875 63.789062 44.242188 63.417969 45.273438 C 63.050781 46.304688 62.707031 47.34375 62.386719 48.394531 C 62.070312 49.441406 61.777344 50.496094 61.511719 51.558594 C 61.246094 52.625 61.003906 53.691406 60.792969 54.765625 C 60.578125 55.839844 60.390625 56.917969 60.230469 58.003906 C 60.070312 59.085938 59.933594 60.175781 59.828125 61.265625 C 59.71875 62.355469 59.640625 63.445312 59.585938 64.542969 C 59.53125 65.636719 59.503906 66.730469 59.503906 67.828125 L 59.503906 176.210938 C 59.503906 177.304688 59.53125 178.402344 59.585938 179.496094 C 59.640625 180.589844 59.71875 181.679688 59.828125 182.773438 C 59.933594 183.863281 60.070312 184.949219 60.230469 186.03125 C 60.390625 187.117188 60.578125 188.195312 60.792969 189.269531 C 61.003906 190.34375 61.246094 191.414062 61.511719 192.476562 C 61.777344 193.539062 62.070312 194.59375 62.386719 195.644531 C 62.707031 196.691406 63.050781 197.730469 63.417969 198.761719 C 63.789062 199.792969 64.179688 200.816406 64.601562 201.828125 C 65.019531 202.839844 65.464844 203.839844 65.933594 204.832031 C 66.402344 205.824219 66.894531 206.800781 67.410156 207.765625 C 67.925781 208.734375 68.464844 209.6875 69.027344 210.625 C 69.59375 211.566406 70.179688 212.492188 70.785156 213.402344 C 71.394531 214.3125 72.027344 215.207031 72.679688 216.089844 C 73.332031 216.96875 74.003906 217.832031 74.699219 218.679688 C 75.394531 219.523438 76.109375 220.355469 76.847656 221.167969 C 77.582031 221.976562 78.335938 222.769531 79.113281 223.546875 C 79.886719 224.320312 80.679688 225.074219 81.492188 225.8125 C 82.304688 226.546875 83.132812 227.261719 83.980469 227.957031 C 84.828125 228.652344 85.691406 229.328125 86.570312 229.980469 C 87.449219 230.632812 88.34375 231.261719 89.257812 231.871094 C 90.167969 232.480469 91.09375 233.066406 92.03125 233.628906 C 92.972656 234.191406 93.925781 234.730469 94.890625 235.25 C 95.855469 235.765625 96.835938 236.257812 97.824219 236.726562 C 98.816406 237.195312 99.816406 237.636719 100.828125 238.058594 C 101.84375 238.476562 102.863281 238.871094 103.894531 239.238281 C 104.925781 239.609375 105.96875 239.953125 107.015625 240.269531 C 108.0625 240.589844 109.121094 240.878906 110.183594 241.148438 C 111.246094 241.414062 112.3125 241.652344 113.386719 241.867188 C 114.460938 242.082031 115.542969 242.269531 116.625 242.429688 C 117.710938 242.589844 118.796875 242.722656 119.886719 242.832031 C 120.976562 242.9375 122.070312 243.019531 123.164062 243.074219 C 124.257812 243.125 125.351562 243.152344 126.449219 243.152344 C 127.542969 243.152344 128.636719 243.125 129.734375 243.074219 C 130.828125 243.019531 131.917969 242.9375 133.007812 242.832031 C 134.101562 242.722656 135.1875 242.589844 136.269531 242.429688 C 137.355469 242.269531 138.433594 242.082031 139.507812 241.867188 C 140.582031 241.652344 141.652344 241.414062 142.714844 241.148438 C 143.777344 240.878906 144.832031 240.589844 145.878906 240.269531 C 146.929688 239.953125 147.96875 239.609375 149 239.238281 C 150.03125 238.871094 151.054688 238.476562 152.066406 238.058594 C 153.078125 237.636719 154.078125 237.195312 155.070312 236.726562 C 156.058594 236.257812 157.039062 235.765625 158.003906 235.25 C 158.972656 234.730469 159.921875 234.191406 160.863281 233.628906 C 161.804688 233.066406 162.726562 232.480469 163.640625 231.871094 C 164.550781 231.261719 165.445312 230.632812 166.324219 229.980469 C 167.207031 229.328125 168.070312 228.652344 168.917969 227.957031 C 169.761719 227.261719 170.59375 226.546875 171.402344 225.8125 C 172.214844 225.074219 173.007812 224.320312 173.785156 223.546875 C 174.558594 222.769531 175.3125 221.976562 176.050781 221.167969 C 176.785156 220.355469 177.5 219.523438 178.195312 218.679688 C 178.890625 217.832031 179.5625 216.96875 180.21875 216.089844 C 180.871094 215.207031 181.5 214.3125 182.109375 213.402344 C 182.71875 212.492188 183.304688 211.566406 183.867188 210.625 C 184.429688 209.6875 184.96875 208.734375 185.484375 207.765625 C 186.003906 206.800781 186.496094 205.824219 186.964844 204.832031 C 187.433594 203.839844 187.875 202.839844 188.296875 201.828125 C 188.714844 200.816406 189.109375 199.792969 189.476562 198.761719 C 189.847656 197.730469 190.191406 196.691406 190.507812 195.644531 C 190.828125 194.59375 191.117188 193.539062 191.382812 192.476562 C 191.652344 191.414062 191.890625 190.34375 192.105469 189.269531 C 192.316406 188.195312 192.503906 187.117188 192.667969 186.03125 C 192.828125 184.949219 192.960938 183.863281 193.070312 182.773438 C 193.175781 181.679688 193.257812 180.589844 193.308594 179.496094 C 193.363281 178.402344 193.390625 177.304688 193.390625 176.210938 Z M 76.507812 176.210938 L 76.507812 170.195312 L 94.929688 170.195312 C 95.488281 170.195312 96.042969 170.140625 96.589844 170.03125 C 97.136719 169.921875 97.667969 169.761719 98.183594 169.546875 C 98.699219 169.335938 99.191406 169.074219 99.652344 168.761719 C 100.117188 168.453125 100.546875 168.101562 100.941406 167.707031 C 101.335938 167.3125 101.691406 166.882812 102 166.417969 C 102.308594 165.953125 102.570312 165.464844 102.785156 164.949219 C 103 164.433594 103.160156 163.902344 103.269531 163.355469 C 103.378906 162.804688 103.433594 162.253906 103.433594 161.695312 C 103.433594 161.136719 103.378906 160.585938 103.269531 160.035156 C 103.160156 159.488281 103 158.957031 102.785156 158.441406 C 102.570312 157.925781 102.308594 157.4375 102 156.972656 C 101.691406 156.507812 101.335938 156.078125 100.941406 155.683594 C 100.546875 155.289062 100.117188 154.9375 99.652344 154.628906 C 99.191406 154.316406 98.699219 154.054688 98.183594 153.839844 C 97.667969 153.628906 97.136719 153.464844 96.589844 153.359375 C 96.042969 153.25 95.488281 153.195312 94.929688 153.195312 L 76.507812 153.195312 L 76.507812 130.519531 L 94.929688 130.519531 C 95.488281 130.519531 96.042969 130.464844 96.589844 130.355469 C 97.136719 130.246094 97.667969 130.085938 98.183594 129.871094 C 98.699219 129.65625 99.191406 129.394531 99.652344 129.085938 C 100.117188 128.777344 100.546875 128.421875 100.941406 128.027344 C 101.335938 127.632812 101.691406 127.203125 102 126.742188 C 102.308594 126.277344 102.570312 125.785156 102.785156 125.269531 C 103 124.753906 103.160156 124.222656 103.269531 123.675781 C 103.378906 123.128906 103.433594 122.578125 103.433594 122.019531 C 103.433594 121.460938 103.378906 120.90625 103.269531 120.359375 C 103.160156 119.8125 103 119.28125 102.785156 118.765625 C 102.570312 118.25 102.308594 117.757812 102 117.296875 C 101.691406 116.832031 101.335938 116.402344 100.941406 116.007812 C 100.546875 115.613281 100.117188 115.261719 99.652344 114.949219 C 99.191406 114.640625 98.699219 114.378906 98.183594 114.164062 C 97.667969 113.949219 97.136719 113.789062 96.589844 113.679688 C 96.042969 113.570312 95.488281 113.515625 94.929688 113.515625 L 76.507812 113.515625 L 76.507812 90.84375 L 94.929688 90.84375 C 95.488281 90.84375 96.042969 90.789062 96.589844 90.679688 C 97.136719 90.570312 97.667969 90.410156 98.183594 90.195312 C 98.699219 89.980469 99.191406 89.71875 99.652344 89.410156 C 100.117188 89.097656 100.546875 88.746094 100.941406 88.351562 C 101.335938 87.957031 101.691406 87.527344 102 87.0625 C 102.308594 86.601562 102.570312 86.109375 102.785156 85.59375 C 103 85.078125 103.160156 84.546875 103.269531 84 C 103.378906 83.453125 103.433594 82.898438 103.433594 82.339844 C 103.433594 81.78125 103.378906 81.230469 103.269531 80.683594 C 103.160156 80.136719 103 79.605469 102.785156 79.089844 C 102.570312 78.574219 102.308594 78.082031 102 77.617188 C 101.691406 77.15625 101.335938 76.726562 100.941406 76.332031 C 100.546875 75.9375 100.117188 75.582031 99.652344 75.273438 C 99.191406 74.964844 98.699219 74.699219 98.183594 74.488281 C 97.667969 74.273438 97.136719 74.113281 96.589844 74.003906 C 96.042969 73.894531 95.488281 73.839844 94.929688 73.839844 L 76.507812 73.839844 L 76.507812 67.828125 C 76.507812 66.191406 76.585938 64.558594 76.75 62.933594 C 76.910156 61.304688 77.148438 59.6875 77.46875 58.085938 C 77.789062 56.480469 78.1875 54.898438 78.660156 53.332031 C 79.136719 51.769531 79.6875 50.230469 80.3125 48.71875 C 80.9375 47.210938 81.636719 45.734375 82.410156 44.289062 C 83.179688 42.847656 84.019531 41.449219 84.929688 40.089844 C 85.835938 38.730469 86.8125 37.417969 87.847656 36.152344 C 88.886719 34.890625 89.984375 33.679688 91.140625 32.523438 C 92.296875 31.367188 93.507812 30.269531 94.769531 29.234375 C 96.035156 28.195312 97.347656 27.222656 98.707031 26.316406 C 100.066406 25.40625 101.46875 24.566406 102.910156 23.796875 C 104.351562 23.027344 105.828125 22.328125 107.339844 21.703125 C 108.851562 21.074219 110.390625 20.527344 111.953125 20.050781 C 113.519531 19.578125 115.101562 19.179688 116.707031 18.859375 C 118.3125 18.542969 119.925781 18.300781 121.554688 18.140625 C 123.179688 17.980469 124.8125 17.902344 126.449219 17.902344 C 128.082031 17.902344 129.714844 17.980469 131.34375 18.140625 C 132.96875 18.300781 134.585938 18.542969 136.1875 18.859375 C 137.792969 19.179688 139.378906 19.578125 140.941406 20.050781 C 142.507812 20.527344 144.042969 21.074219 145.554688 21.703125 C 147.066406 22.328125 148.542969 23.027344 149.984375 23.796875 C 151.425781 24.566406 152.828125 25.40625 154.1875 26.316406 C 155.546875 27.222656 156.859375 28.195312 158.125 29.234375 C 159.390625 30.269531 160.597656 31.367188 161.753906 32.523438 C 162.914062 33.679688 164.007812 34.890625 165.046875 36.152344 C 166.085938 37.417969 167.058594 38.730469 167.964844 40.089844 C 168.875 41.449219 169.714844 42.847656 170.488281 44.289062 C 171.257812 45.734375 171.957031 47.210938 172.582031 48.71875 C 173.210938 50.230469 173.757812 51.769531 174.234375 53.332031 C 174.710938 54.898438 175.105469 56.480469 175.425781 58.085938 C 175.746094 59.6875 175.988281 61.304688 176.148438 62.933594 C 176.308594 64.558594 176.390625 66.191406 176.390625 67.828125 L 176.390625 73.839844 L 157.964844 73.839844 C 157.40625 73.839844 156.851562 73.894531 156.304688 74.003906 C 155.757812 74.113281 155.226562 74.273438 154.710938 74.488281 C 154.195312 74.699219 153.707031 74.964844 153.242188 75.273438 C 152.777344 75.582031 152.347656 75.9375 151.953125 76.332031 C 151.558594 76.726562 151.207031 77.15625 150.894531 77.617188 C 150.585938 78.082031 150.324219 78.574219 150.109375 79.089844 C 149.898438 79.605469 149.734375 80.136719 149.625 80.683594 C 149.519531 81.230469 149.464844 81.78125 149.464844 82.339844 C 149.464844 82.898438 149.519531 83.453125 149.625 84 C 149.734375 84.546875 149.898438 85.078125 150.109375 85.59375 C 150.324219 86.109375 150.585938 86.601562 150.894531 87.0625 C 151.207031 87.527344 151.558594 87.957031 151.953125 88.351562 C 152.347656 88.746094 152.777344 89.097656 153.242188 89.410156 C 153.707031 89.71875 154.195312 89.980469 154.710938 90.195312 C 155.226562 90.410156 155.757812 90.570312 156.304688 90.679688 C 156.851562 90.789062 157.40625 90.84375 157.964844 90.84375 L 176.390625 90.84375 L 176.390625 113.515625 L 157.964844 113.515625 C 157.40625 113.515625 156.851562 113.570312 156.304688 113.679688 C 155.757812 113.789062 155.226562 113.949219 154.710938 114.164062 C 154.195312 114.378906 153.707031 114.640625 153.242188 114.949219 C 152.777344 115.261719 152.347656 115.613281 151.953125 116.007812 C 151.558594 116.402344 151.207031 116.832031 150.894531 117.296875 C 150.585938 117.757812 150.324219 118.25 150.109375 118.765625 C 149.898438 119.28125 149.734375 119.8125 149.625 120.359375 C 149.519531 120.90625 149.464844 121.460938 149.464844 122.019531 C 149.464844 122.578125 149.519531 123.128906 149.625 123.675781 C 149.734375 124.222656 149.898438 124.753906 150.109375 125.269531 C 150.324219 125.785156 150.585938 126.277344 150.894531 126.742188 C 151.207031 127.203125 151.558594 127.632812 151.953125 128.027344 C 152.347656 128.421875 152.777344 128.777344 153.242188 129.085938 C 153.707031 129.394531 154.195312 129.65625 154.710938 129.871094 C 155.226562 130.085938 155.757812 130.246094 156.304688 130.355469 C 156.851562 130.464844 157.40625 130.519531 157.964844 130.519531 L 176.390625 130.519531 L 176.390625 153.195312 L 157.964844 153.195312 C 157.40625 153.195312 156.851562 153.25 156.304688 153.359375 C 155.757812 153.464844 155.226562 153.628906 154.710938 153.839844 C 154.195312 154.054688 153.707031 154.316406 153.242188 154.628906 C 152.777344 154.9375 152.347656 155.289062 151.953125 155.683594 C 151.558594 156.078125 151.207031 156.507812 150.894531 156.972656 C 150.585938 157.4375 150.324219 157.925781 150.109375 158.441406 C 149.898438 158.957031 149.734375 159.488281 149.625 160.035156 C 149.519531 160.585938 149.464844 161.136719 149.464844 161.695312 C 149.464844 162.253906 149.519531 162.804688 149.625 163.355469 C 149.734375 163.902344 149.898438 164.433594 150.109375 164.949219 C 150.324219 165.464844 150.585938 165.953125 150.894531 166.417969 C 151.207031 166.882812 151.558594 167.3125 151.953125 167.707031 C 152.347656 168.101562 152.777344 168.453125 153.242188 168.761719 C 153.707031 169.074219 154.195312 169.335938 154.710938 169.546875 C 155.226562 169.761719 155.757812 169.921875 156.304688 170.03125 C 156.851562 170.140625 157.40625 170.195312 157.964844 170.195312 L 176.390625 170.195312 L 176.390625 176.210938 C 176.390625 177.84375 176.308594 179.476562 176.148438 181.105469 C 175.988281 182.730469 175.746094 184.347656 175.425781 185.949219 C 175.105469 187.554688 174.710938 189.140625 174.234375 190.703125 C 173.757812 192.269531 173.210938 193.804688 172.582031 195.316406 C 171.957031 196.828125 171.257812 198.304688 170.488281 199.746094 C 169.714844 201.1875 168.875 202.589844 167.964844 203.949219 C 167.058594 205.308594 166.085938 206.617188 165.046875 207.882812 C 164.007812 209.148438 162.914062 210.355469 161.753906 211.511719 C 160.597656 212.667969 159.390625 213.765625 158.125 214.804688 C 156.859375 215.839844 155.546875 216.8125 154.1875 217.722656 C 152.828125 218.628906 151.425781 219.46875 149.984375 220.238281 C 148.542969 221.011719 147.066406 221.707031 145.554688 222.335938 C 144.042969 222.960938 142.507812 223.511719 140.941406 223.984375 C 139.378906 224.460938 137.792969 224.855469 136.1875 225.175781 C 134.585938 225.496094 132.96875 225.734375 131.34375 225.894531 C 129.714844 226.054688 128.082031 226.132812 126.449219 226.132812 C 124.8125 226.132812 123.179688 226.054688 121.554688 225.894531 C 119.925781 225.734375 118.3125 225.496094 116.707031 225.175781 C 115.101562 224.855469 113.519531 224.460938 111.953125 223.984375 C 110.390625 223.511719 108.851562 222.960938 107.339844 222.335938 C 105.828125 221.707031 104.351562 221.011719 102.910156 220.238281 C 101.46875 219.46875 100.066406 218.628906 98.707031 217.722656 C 97.347656 216.8125 96.035156 215.839844 94.769531 214.804688 C 93.507812 213.765625 92.296875 212.667969 91.140625 211.511719 C 89.984375 210.355469 88.886719 209.148438 87.847656 207.882812 C 86.8125 206.617188 85.835938 205.308594 84.929688 203.949219 C 84.019531 202.589844 83.179688 201.1875 82.410156 199.746094 C 81.636719 198.304688 80.9375 196.828125 80.3125 195.316406 C 79.6875 193.804688 79.136719 192.269531 78.660156 190.703125 C 78.1875 189.140625 77.789062 187.554688 77.46875 185.949219 C 77.148438 184.347656 76.910156 182.730469 76.75 181.105469 C 76.585938 179.476562 76.507812 177.84375 76.507812 176.210938 Z M 76.507812 176.210938 " fill-opacity="1" fill-rule="nonzero"/></g><path fill="#302e2e" d="M 8.5 136.894531 C 7.941406 136.894531 7.390625 136.949219 6.84375 137.058594 C 6.292969 137.167969 5.761719 137.328125 5.246094 137.542969 C 4.730469 137.753906 4.242188 138.015625 3.777344 138.328125 C 3.3125 138.636719 2.882812 138.988281 2.488281 139.382812 C 2.09375 139.777344 1.742188 140.207031 1.433594 140.671875 C 1.121094 141.136719 0.859375 141.625 0.648438 142.140625 C 0.433594 142.65625 0.273438 143.1875 0.164062 143.738281 C 0.0546875 144.285156 0 144.835938 0 145.394531 L 0 161.332031 C 0.00390625 163.3125 0.0507812 165.292969 0.148438 167.269531 C 0.242188 169.246094 0.382812 171.222656 0.574219 173.191406 C 0.761719 175.164062 0.996094 177.128906 1.277344 179.089844 C 1.554688 181.046875 1.882812 183 2.253906 184.945312 C 2.625 186.890625 3.042969 188.824219 3.507812 190.75 C 3.96875 192.675781 4.476562 194.589844 5.027344 196.488281 C 5.582031 198.390625 6.179688 200.277344 6.820312 202.152344 C 7.460938 204.023438 8.144531 205.882812 8.871094 207.722656 C 9.601562 209.5625 10.371094 211.386719 11.183594 213.191406 C 12 214.996094 12.855469 216.78125 13.753906 218.546875 C 14.648438 220.308594 15.585938 222.054688 16.566406 223.773438 C 17.546875 225.496094 18.566406 227.191406 19.625 228.863281 C 20.683594 230.539062 21.78125 232.183594 22.917969 233.804688 C 24.050781 235.425781 25.226562 237.019531 26.4375 238.585938 C 27.648438 240.152344 28.894531 241.691406 30.175781 243.199219 C 31.460938 244.707031 32.777344 246.183594 34.128906 247.628906 C 35.484375 249.078125 36.867188 250.488281 38.285156 251.871094 C 39.707031 253.25 41.15625 254.597656 42.636719 255.910156 C 44.117188 257.226562 45.628906 258.503906 47.171875 259.746094 C 48.714844 260.988281 50.285156 262.191406 51.882812 263.359375 C 53.480469 264.527344 55.105469 265.660156 56.757812 266.75 C 58.40625 267.84375 60.085938 268.898438 61.785156 269.910156 C 63.484375 270.925781 65.210938 271.898438 66.957031 272.828125 C 68.703125 273.761719 70.46875 274.652344 72.257812 275.503906 C 74.046875 276.351562 75.851562 277.160156 77.679688 277.925781 C 79.503906 278.691406 81.347656 279.414062 83.207031 280.089844 C 85.066406 280.769531 86.941406 281.40625 88.832031 281.996094 C 90.722656 282.585938 92.625 283.132812 94.539062 283.632812 C 96.453125 284.132812 98.382812 284.589844 100.316406 285 C 102.253906 285.414062 104.199219 285.777344 106.152344 286.097656 C 108.105469 286.417969 110.066406 286.691406 112.035156 286.917969 C 114 287.144531 115.972656 287.328125 117.945312 287.464844 L 117.945312 338.785156 L 55.253906 338.785156 C 54.695312 338.785156 54.144531 338.839844 53.597656 338.949219 C 53.046875 339.058594 52.515625 339.21875 52 339.433594 C 51.484375 339.648438 50.996094 339.910156 50.53125 340.21875 C 50.066406 340.527344 49.636719 340.882812 49.242188 341.277344 C 48.847656 341.671875 48.496094 342.101562 48.1875 342.5625 C 47.875 343.027344 47.613281 343.519531 47.402344 344.035156 C 47.1875 344.550781 47.027344 345.082031 46.917969 345.628906 C 46.808594 346.175781 46.753906 346.726562 46.753906 347.285156 C 46.753906 347.84375 46.808594 348.398438 46.917969 348.945312 C 47.027344 349.492188 47.1875 350.023438 47.402344 350.539062 C 47.613281 351.054688 47.875 351.546875 48.1875 352.007812 C 48.496094 352.472656 48.847656 352.902344 49.242188 353.296875 C 49.636719 353.691406 50.066406 354.042969 50.53125 354.355469 C 50.996094 354.664062 51.484375 354.925781 52 355.140625 C 52.515625 355.355469 53.046875 355.515625 53.597656 355.625 C 54.144531 355.734375 54.695312 355.789062 55.253906 355.789062 L 200.53125 355.789062 C 201.089844 355.789062 201.640625 355.734375 202.191406 355.625 C 202.738281 355.515625 203.269531 355.355469 203.785156 355.140625 C 204.300781 354.925781 204.789062 354.664062 205.253906 354.355469 C 205.71875 354.042969 206.148438 353.691406 206.542969 353.296875 C 206.9375 352.902344 207.289062 352.472656 207.597656 352.007812 C 207.910156 351.546875 208.171875 351.054688 208.386719 350.539062 C 208.597656 350.023438 208.761719 349.492188 208.867188 348.945312 C 208.976562 348.398438 209.03125 347.84375 209.03125 347.285156 C 209.03125 346.726562 208.976562 346.175781 208.867188 345.628906 C 208.761719 345.082031 208.597656 344.550781 208.386719 344.035156 C 208.171875 343.519531 207.910156 343.027344 207.597656 342.5625 C 207.289062 342.101562 206.9375 341.671875 206.542969 341.277344 C 206.148438 340.882812 205.71875 340.527344 205.253906 340.21875 C 204.789062 339.910156 204.300781 339.648438 203.785156 339.433594 C 203.269531 339.21875 202.738281 339.058594 202.191406 338.949219 C 201.640625 338.839844 201.089844 338.785156 200.53125 338.785156 L 134.949219 338.785156 L 134.949219 287.464844 C 136.921875 287.328125 138.894531 287.144531 140.863281 286.917969 C 142.828125 286.691406 144.789062 286.417969 146.742188 286.097656 C 148.695312 285.777344 150.640625 285.414062 152.578125 285 C 154.515625 284.589844 156.441406 284.132812 158.355469 283.632812 C 160.269531 283.132812 162.175781 282.585938 164.0625 281.996094 C 165.953125 281.40625 167.828125 280.769531 169.6875 280.089844 C 171.546875 279.414062 173.390625 278.691406 175.21875 277.925781 C 177.042969 277.160156 178.851562 276.351562 180.636719 275.503906 C 182.425781 274.652344 184.195312 273.761719 185.941406 272.828125 C 187.6875 271.898438 189.410156 270.925781 191.109375 269.910156 C 192.8125 268.898438 194.488281 267.84375 196.140625 266.75 C 197.789062 265.660156 199.414062 264.527344 201.011719 263.359375 C 202.613281 262.191406 204.179688 260.988281 205.722656 259.746094 C 207.265625 258.503906 208.777344 257.226562 210.257812 255.910156 C 211.742188 254.597656 213.191406 253.25 214.609375 251.871094 C 216.027344 250.488281 217.414062 249.078125 218.765625 247.628906 C 220.117188 246.183594 221.433594 244.707031 222.71875 243.199219 C 224 241.691406 225.25 240.152344 226.460938 238.585938 C 227.667969 237.019531 228.84375 235.425781 229.980469 233.804688 C 231.117188 232.183594 232.214844 230.539062 233.273438 228.863281 C 234.332031 227.191406 235.347656 225.496094 236.328125 223.773438 C 237.308594 222.054688 238.246094 220.308594 239.144531 218.546875 C 240.039062 216.78125 240.898438 214.996094 241.710938 213.191406 C 242.523438 211.386719 243.292969 209.5625 244.023438 207.722656 C 244.75 205.882812 245.4375 204.023438 246.078125 202.152344 C 246.71875 200.277344 247.316406 198.390625 247.867188 196.488281 C 248.417969 194.589844 248.925781 192.675781 249.390625 190.75 C 249.851562 188.824219 250.269531 186.890625 250.640625 184.945312 C 251.015625 183 251.339844 181.046875 251.621094 179.089844 C 251.902344 177.128906 252.132812 175.164062 252.324219 173.191406 C 252.511719 171.222656 252.652344 169.246094 252.75 167.269531 C 252.84375 165.292969 252.894531 163.3125 252.894531 161.332031 L 252.894531 145.394531 C 252.894531 144.835938 252.839844 144.285156 252.730469 143.738281 C 252.625 143.1875 252.460938 142.65625 252.25 142.140625 C 252.035156 141.625 251.773438 141.136719 251.464844 140.671875 C 251.152344 140.207031 250.800781 139.777344 250.40625 139.382812 C 250.011719 138.988281 249.582031 138.636719 249.117188 138.328125 C 248.652344 138.015625 248.164062 137.753906 247.648438 137.542969 C 247.132812 137.328125 246.601562 137.167969 246.054688 137.058594 C 245.507812 136.949219 244.953125 136.894531 244.394531 136.894531 C 243.835938 136.894531 243.285156 136.949219 242.738281 137.058594 C 242.1875 137.167969 241.65625 137.328125 241.140625 137.542969 C 240.625 137.753906 240.136719 138.015625 239.671875 138.328125 C 239.207031 138.636719 238.777344 138.988281 238.382812 139.382812 C 237.988281 139.777344 237.636719 140.207031 237.328125 140.671875 C 237.015625 141.136719 236.753906 141.625 236.542969 142.140625 C 236.328125 142.65625 236.167969 143.1875 236.058594 143.738281 C 235.949219 144.285156 235.894531 144.835938 235.894531 145.394531 L 235.894531 161.332031 C 235.894531 163.125 235.847656 164.914062 235.761719 166.703125 C 235.671875 168.492188 235.539062 170.277344 235.363281 172.058594 C 235.1875 173.839844 234.96875 175.617188 234.703125 177.390625 C 234.441406 179.160156 234.136719 180.925781 233.785156 182.679688 C 233.433594 184.4375 233.042969 186.183594 232.605469 187.921875 C 232.171875 189.65625 231.691406 191.382812 231.171875 193.097656 C 230.652344 194.808594 230.089844 196.507812 229.488281 198.195312 C 228.882812 199.882812 228.238281 201.550781 227.550781 203.207031 C 226.867188 204.859375 226.140625 206.496094 225.375 208.113281 C 224.609375 209.734375 223.804688 211.332031 222.957031 212.910156 C 222.113281 214.492188 221.230469 216.046875 220.308594 217.585938 C 219.390625 219.121094 218.429688 220.632812 217.4375 222.121094 C 216.441406 223.609375 215.410156 225.074219 214.34375 226.511719 C 213.277344 227.949219 212.175781 229.359375 211.039062 230.746094 C 209.902344 232.128906 208.730469 233.484375 207.527344 234.8125 C 206.324219 236.136719 205.089844 237.433594 203.824219 238.699219 C 202.558594 239.964844 201.261719 241.199219 199.933594 242.402344 C 198.605469 243.605469 197.25 244.773438 195.867188 245.910156 C 194.484375 247.046875 193.070312 248.148438 191.632812 249.214844 C 190.195312 250.28125 188.730469 251.3125 187.242188 252.304688 C 185.753906 253.300781 184.238281 254.257812 182.703125 255.179688 C 181.167969 256.097656 179.609375 256.980469 178.03125 257.824219 C 176.449219 258.667969 174.851562 259.472656 173.234375 260.238281 C 171.613281 261.003906 169.976562 261.730469 168.324219 262.414062 C 166.667969 263.101562 164.996094 263.746094 163.3125 264.347656 C 161.625 264.949219 159.925781 265.511719 158.210938 266.03125 C 156.496094 266.550781 154.773438 267.027344 153.035156 267.464844 C 151.296875 267.898438 149.550781 268.292969 147.796875 268.640625 C 146.039062 268.988281 144.273438 269.296875 142.503906 269.558594 C 140.730469 269.820312 138.957031 270.039062 137.171875 270.214844 C 135.390625 270.390625 133.605469 270.523438 131.816406 270.609375 C 130.027344 270.699219 128.238281 270.742188 126.449219 270.742188 C 124.65625 270.742188 122.867188 270.699219 121.078125 270.609375 C 119.289062 270.523438 117.503906 270.390625 115.722656 270.214844 C 113.941406 270.039062 112.164062 269.820312 110.390625 269.558594 C 108.621094 269.296875 106.855469 268.988281 105.101562 268.640625 C 103.34375 268.292969 101.597656 267.898438 99.859375 267.464844 C 98.125 267.027344 96.398438 266.550781 94.683594 266.03125 C 92.96875 265.511719 91.269531 264.949219 89.585938 264.347656 C 87.898438 263.746094 86.226562 263.101562 84.574219 262.414062 C 82.917969 261.730469 81.28125 261.003906 79.664062 260.238281 C 78.042969 259.472656 76.445312 258.667969 74.867188 257.824219 C 73.285156 256.980469 71.726562 256.097656 70.191406 255.179688 C 68.65625 254.257812 67.144531 253.300781 65.65625 252.304688 C 64.164062 251.3125 62.703125 250.28125 61.261719 249.214844 C 59.824219 248.148438 58.414062 247.046875 57.027344 245.910156 C 55.644531 244.773438 54.289062 243.605469 52.960938 242.402344 C 51.632812 241.199219 50.335938 239.964844 49.070312 238.699219 C 47.804688 237.433594 46.570312 236.136719 45.367188 234.8125 C 44.164062 233.484375 42.996094 232.128906 41.859375 230.746094 C 40.722656 229.359375 39.621094 227.949219 38.554688 226.511719 C 37.484375 225.074219 36.453125 223.609375 35.460938 222.121094 C 34.464844 220.632812 33.507812 219.121094 32.585938 217.585938 C 31.664062 216.046875 30.78125 214.492188 29.9375 212.910156 C 29.09375 211.332031 28.285156 209.734375 27.519531 208.113281 C 26.753906 206.496094 26.027344 204.859375 25.34375 203.207031 C 24.65625 201.550781 24.011719 199.882812 23.410156 198.195312 C 22.804688 196.507812 22.242188 194.808594 21.722656 193.097656 C 21.203125 191.382812 20.726562 189.65625 20.289062 187.921875 C 19.851562 186.183594 19.460938 184.4375 19.109375 182.679688 C 18.761719 180.925781 18.453125 179.160156 18.191406 177.390625 C 17.925781 175.617188 17.707031 173.839844 17.53125 172.058594 C 17.355469 170.277344 17.222656 168.492188 17.136719 166.703125 C 17.046875 164.914062 17.003906 163.125 17 161.332031 L 17 145.394531 C 17 144.835938 16.945312 144.285156 16.839844 143.738281 C 16.730469 143.1875 16.566406 142.65625 16.355469 142.140625 C 16.140625 141.625 15.878906 141.136719 15.570312 140.671875 C 15.257812 140.207031 14.90625 139.777344 14.511719 139.382812 C 14.117188 138.988281 13.6875 138.636719 13.222656 138.328125 C 12.757812 138.015625 12.269531 137.753906 11.753906 137.542969 C 11.238281 137.328125 10.707031 137.167969 10.160156 137.058594 C 9.613281 136.949219 9.058594 136.894531 8.5 136.894531 Z M 8.5 136.894531 " fill-opacity="1" fill-rule="nonzero"/><g fill="#302e2e" fill-opacity="1"><g transform="translate(123.056167, 234.572782)"><g><path d="M 3.375 0.21875 C 2.613281 0.21875 1.96875 -0.0351562 1.4375 -0.546875 C 0.90625 -1.054688 0.640625 -1.703125 0.640625 -2.484375 C 0.640625 -3.285156 0.898438 -3.929688 1.421875 -4.421875 C 1.941406 -4.921875 2.59375 -5.171875 3.375 -5.171875 C 4.175781 -5.171875 4.832031 -4.921875 5.34375 -4.421875 C 5.851562 -3.929688 6.109375 -3.285156 6.109375 -2.484375 C 6.109375 -1.703125 5.847656 -1.054688 5.328125 -0.546875 C 4.804688 -0.0351562 4.15625 0.21875 3.375 0.21875 Z M 3.375 0.21875 "/></g></g></g></svg>